<mxfile host="Electron" agent="Mozilla/5.0 (Windows NT 10.0; Win64; x64) AppleWebKit/537.36 (KHTML, like Gecko) draw.io/26.1.1 Chrome/132.0.6834.210 Electron/34.3.3 Safari/537.36" version="26.1.1">
  <diagram name="Page-1" id="rmwC8x6FRhV82YIsv5Z-">
    <mxGraphModel dx="3164" dy="1196" grid="1" gridSize="10" guides="1" tooltips="1" connect="1" arrows="1" fold="1" page="1" pageScale="1" pageWidth="850" pageHeight="1100" math="0" shadow="0">
      <root>
        <mxCell id="0" />
        <mxCell id="1" parent="0" />
        <mxCell id="iXCwfWiz2Fu7c95TIVKi-17" style="edgeStyle=orthogonalEdgeStyle;rounded=0;orthogonalLoop=1;jettySize=auto;html=1;exitX=0.5;exitY=1;exitDx=0;exitDy=0;" parent="1" source="iXCwfWiz2Fu7c95TIVKi-1" edge="1">
          <mxGeometry relative="1" as="geometry">
            <mxPoint x="295" y="130" as="targetPoint" />
          </mxGeometry>
        </mxCell>
        <mxCell id="iXCwfWiz2Fu7c95TIVKi-1" value="Start" style="ellipse;whiteSpace=wrap;html=1;" parent="1" vertex="1">
          <mxGeometry x="220" y="50" width="150" height="70" as="geometry" />
        </mxCell>
        <mxCell id="iXCwfWiz2Fu7c95TIVKi-18" style="edgeStyle=orthogonalEdgeStyle;rounded=0;orthogonalLoop=1;jettySize=auto;html=1;exitX=0.5;exitY=1;exitDx=0;exitDy=0;" parent="1" source="iXCwfWiz2Fu7c95TIVKi-4" edge="1">
          <mxGeometry relative="1" as="geometry">
            <mxPoint x="295" y="210" as="targetPoint" />
          </mxGeometry>
        </mxCell>
        <mxCell id="iXCwfWiz2Fu7c95TIVKi-4" value="Input hours" style="shape=parallelogram;perimeter=parallelogramPerimeter;whiteSpace=wrap;html=1;fixedSize=1;" parent="1" vertex="1">
          <mxGeometry x="200" y="140" width="190" height="60" as="geometry" />
        </mxCell>
        <mxCell id="iXCwfWiz2Fu7c95TIVKi-23" style="edgeStyle=orthogonalEdgeStyle;rounded=0;orthogonalLoop=1;jettySize=auto;html=1;exitX=0.5;exitY=1;exitDx=0;exitDy=0;" parent="1" source="iXCwfWiz2Fu7c95TIVKi-5" edge="1">
          <mxGeometry relative="1" as="geometry">
            <mxPoint x="605" y="600" as="targetPoint" />
          </mxGeometry>
        </mxCell>
        <mxCell id="iXCwfWiz2Fu7c95TIVKi-5" value="Input materialCost" style="shape=parallelogram;perimeter=parallelogramPerimeter;whiteSpace=wrap;html=1;fixedSize=1;" parent="1" vertex="1">
          <mxGeometry x="515" y="510" width="180" height="60" as="geometry" />
        </mxCell>
        <mxCell id="iXCwfWiz2Fu7c95TIVKi-19" style="edgeStyle=orthogonalEdgeStyle;rounded=0;orthogonalLoop=1;jettySize=auto;html=1;exitX=0;exitY=0.5;exitDx=0;exitDy=0;" parent="1" source="iXCwfWiz2Fu7c95TIVKi-6" edge="1">
          <mxGeometry relative="1" as="geometry">
            <mxPoint x="-70" y="400" as="targetPoint" />
          </mxGeometry>
        </mxCell>
        <mxCell id="iXCwfWiz2Fu7c95TIVKi-21" style="edgeStyle=orthogonalEdgeStyle;rounded=0;orthogonalLoop=1;jettySize=auto;html=1;exitX=1;exitY=0.5;exitDx=0;exitDy=0;" parent="1" source="iXCwfWiz2Fu7c95TIVKi-6" edge="1">
          <mxGeometry relative="1" as="geometry">
            <mxPoint x="650" y="390" as="targetPoint" />
          </mxGeometry>
        </mxCell>
        <mxCell id="iXCwfWiz2Fu7c95TIVKi-6" value="If the number of hours = 0, then move onto End-Of-Program Module&lt;div&gt;If the number of hours is greater than 0 then move onto calculate Total Cost&lt;/div&gt;" style="rhombus;whiteSpace=wrap;html=1;" parent="1" vertex="1">
          <mxGeometry x="-50" y="220" width="680" height="190" as="geometry" />
        </mxCell>
        <mxCell id="iXCwfWiz2Fu7c95TIVKi-20" style="edgeStyle=orthogonalEdgeStyle;rounded=0;orthogonalLoop=1;jettySize=auto;html=1;exitX=0.5;exitY=1;exitDx=0;exitDy=0;" parent="1" source="iXCwfWiz2Fu7c95TIVKi-10" edge="1">
          <mxGeometry relative="1" as="geometry">
            <mxPoint x="-5" y="520" as="targetPoint" />
          </mxGeometry>
        </mxCell>
        <mxCell id="iXCwfWiz2Fu7c95TIVKi-10" value="End-Of-Program&amp;nbsp;" style="rounded=0;whiteSpace=wrap;html=1;" parent="1" vertex="1">
          <mxGeometry x="-100" y="430" width="190" height="60" as="geometry" />
        </mxCell>
        <mxCell id="iXCwfWiz2Fu7c95TIVKi-22" style="edgeStyle=orthogonalEdgeStyle;rounded=0;orthogonalLoop=1;jettySize=auto;html=1;exitX=0.5;exitY=1;exitDx=0;exitDy=0;" parent="1" source="iXCwfWiz2Fu7c95TIVKi-11" edge="1">
          <mxGeometry relative="1" as="geometry">
            <mxPoint x="605" y="490" as="targetPoint" />
          </mxGeometry>
        </mxCell>
        <mxCell id="iXCwfWiz2Fu7c95TIVKi-11" value="Calculate Total Cost" style="rounded=0;whiteSpace=wrap;html=1;" parent="1" vertex="1">
          <mxGeometry x="510" y="410" width="190" height="60" as="geometry" />
        </mxCell>
        <mxCell id="iXCwfWiz2Fu7c95TIVKi-13" value="Stop" style="ellipse;whiteSpace=wrap;html=1;" parent="1" vertex="1">
          <mxGeometry x="-65" y="530" width="120" height="80" as="geometry" />
        </mxCell>
        <mxCell id="iXCwfWiz2Fu7c95TIVKi-24" style="edgeStyle=orthogonalEdgeStyle;rounded=0;orthogonalLoop=1;jettySize=auto;html=1;exitX=0.5;exitY=1;exitDx=0;exitDy=0;" parent="1" source="iXCwfWiz2Fu7c95TIVKi-14" edge="1">
          <mxGeometry relative="1" as="geometry">
            <mxPoint x="613" y="730" as="targetPoint" />
          </mxGeometry>
        </mxCell>
        <mxCell id="iXCwfWiz2Fu7c95TIVKi-14" value="Total Cost = (hours x $30) = (1.2 x material cost)" style="rounded=0;whiteSpace=wrap;html=1;" parent="1" vertex="1">
          <mxGeometry x="515" y="610" width="195" height="90" as="geometry" />
        </mxCell>
        <mxCell id="iXCwfWiz2Fu7c95TIVKi-15" value="Display toalCost" style="shape=parallelogram;perimeter=parallelogramPerimeter;whiteSpace=wrap;html=1;fixedSize=1;" parent="1" vertex="1">
          <mxGeometry x="520" y="740" width="185" height="70" as="geometry" />
        </mxCell>
        <mxCell id="iXCwfWiz2Fu7c95TIVKi-25" style="edgeStyle=orthogonalEdgeStyle;rounded=0;orthogonalLoop=1;jettySize=auto;html=1;exitX=0.5;exitY=1;exitDx=0;exitDy=0;" parent="1" source="iXCwfWiz2Fu7c95TIVKi-15" target="iXCwfWiz2Fu7c95TIVKi-15" edge="1">
          <mxGeometry relative="1" as="geometry" />
        </mxCell>
        <mxCell id="iXCwfWiz2Fu7c95TIVKi-26" value="" style="endArrow=classic;html=1;rounded=0;exitX=1;exitY=0.5;exitDx=0;exitDy=0;" parent="1" source="iXCwfWiz2Fu7c95TIVKi-15" target="iXCwfWiz2Fu7c95TIVKi-4" edge="1">
          <mxGeometry width="50" height="50" relative="1" as="geometry">
            <mxPoint x="720" y="790" as="sourcePoint" />
            <mxPoint x="430" y="180" as="targetPoint" />
            <Array as="points">
              <mxPoint x="780" y="770" />
              <mxPoint x="750" y="200" />
            </Array>
          </mxGeometry>
        </mxCell>
      </root>
    </mxGraphModel>
  </diagram>
</mxfile>
